HIERARCHY
ROOT Hips
{
  OFFSET 0.0 0.0 0.0
  CHANNELS 6 XPOSITION YPOSITION ZPOSITION ZROTATION XROTATION YROTATION 
  JOINT LeftUpLeg
  {
    OFFSET 0.089458 -0.0866707 0.00101652
    CHANNELS 3 ZROTATION XROTATION YROTATION 
    JOINT LeftLeg
    {
      OFFSET 0.0 -0.444227 0.013727
      CHANNELS 3 ZROTATION XROTATION YROTATION 
      JOINT LeftFoot
      {
        OFFSET -0.00253549 -0.420924 -0.0146059
        CHANNELS 3 ZROTATION XROTATION YROTATION 
        End Site
        {
          OFFSET -0.0004 -0.0441509 0.084991
        }
      }
    }
  }
  JOINT Spine
  {
    OFFSET 0.0 0.118905 0.0
    CHANNELS 3 ZROTATION XROTATION YROTATION 
    JOINT Spine1
    {
      OFFSET 0.0 0.256574 0.00127663
      CHANNELS 3 ZROTATION XROTATION YROTATION 
      End Site
      {
        OFFSET -0.0029 0.2150836 0.02525291
      }
      JOINT RightArm
      {
        OFFSET -0.162727 -0.05365632 0.00102123
        CHANNELS 3 ZROTATION XROTATION YROTATION 
        JOINT RightForeArm
        {
          OFFSET -0.26364 0.00099144 -0.0142434
          CHANNELS 3 ZROTATION XROTATION YROTATION 
          End Site
          {
            OFFSET -0.220324 0.00085362 0.0102216
          }
        }
      }
      JOINT LeftArm
      {
        OFFSET 0.162727 -0.0536563199 0.00102123
        CHANNELS 3 ZROTATION XROTATION YROTATION 
        JOINT LeftForeArm
        {
          OFFSET 0.262597 0.00099144 -0.0142434
          CHANNELS 3 ZROTATION XROTATION YROTATION 
          End Site
          {
            OFFSET 0.220902 0.00085362 0.0102216
          }
        }
      }
    }
  }
  JOINT RightUpLeg
  {
    OFFSET -0.089458 -0.0866707 0.00101652
    CHANNELS 3 ZROTATION XROTATION YROTATION 
    JOINT RightLeg
    {
      OFFSET 0.0 -0.444227 0.013727
      CHANNELS 3 ZROTATION XROTATION YROTATION 
      JOINT RightFoot
      {
        OFFSET 0.00253549 -0.420924 -0.0146059
        CHANNELS 3 ZROTATION XROTATION YROTATION 
        End Site
        {
          OFFSET 0.0004 -0.0441509 0.084991
        }
      }
    }
  }
}
MOTION
Frames: 19
Frame Time: 0.033333
-21.3279994 0.998090803539 0.9781071 -10.6777764559 -1.40121341495 -95.0317823755 -7.70663050657 11.1965131017 3.40580872939 -0.86494073874 19.0326311883 23.8502419401 -3.71980383803 -24.0848538155 -0.389897533469 -13.4461050605 -0.0784855503402 -5.70816795496 11.5272530594 -4.58210881744 -7.43985185533 52.8583490433 -28.2696441256 -29.7064051534 9.09465813461 37.6747702165 1.17931188132 -63.9969259191 -1.00561280693 -13.3867148581 -0.494514073563 24.8824764766 -28.2088298288 -3.34899158733 -21.9211250185 1.13511842295 -1.56621520393 54.0762537346 -17.5070555032 13.2031859676 -16.0775430137 0.737485300042 
-21.347127 0.996355403539 0.9793715 -10.1184121374 -1.07738806326 -94.7401059771 -7.15367247863 12.0833303494 3.35365959474 -0.650637043507 18.9139429911 23.7578124052 -4.5226234193 -24.8380426809 -0.529561481741 -12.5712321061 -0.15076968912 -5.89452923958 11.4793888012 -4.47242579777 -7.55419178336 53.2241466545 -28.2335756041 -30.2553406268 9.02261329924 37.7422524855 1.4191902594 -64.6924577427 -1.64384926847 -13.7523374457 -0.112365162923 25.4545867818 -29.1333556971 -2.97014063087 -22.8525323024 0.445535640798 -1.40380504485 49.6069638474 -16.8352312663 13.2893539266 -16.2296359586 0.746681509429 
-21.3669776 0.994256003539 0.9800876 -9.67157689304 -0.745675657352 -94.4041289719 -6.58627884588 13.14748919 3.22821292535 -0.323758010291 18.74664263 23.6300878677 -5.28775657805 -25.5378382501 -0.676980923053 -11.561899194 -0.0901491855753 -5.94382527614 11.3962321019 -4.42459654433 -7.53799142842 54.0067087485 -28.3576784338 -30.2689941749 9.00272122706 38.0630459802 1.44918556875 -65.430152324 -1.54032270384 -14.0228598944 0.130103471023 25.7852277018 -29.673644151 -2.46366481499 -23.1075459528 -0.12191922353 -1.28457278039 45.1077030902 -16.2983100956 12.8812680529 -15.7873385212 0.655002014634 
-21.387906 0.991348603539 0.9799884 -9.25514879708 -0.461333121297 -94.2025359385 -6.05718806023 14.242055179 3.11943832084 0.0135757313521 18.7079222876 23.7449545741 -5.99783457011 -26.2640478683 -0.83290384316 -10.4328902685 -0.0847694244282 -5.8225591094 11.0340570523 -4.45067121838 -7.3268207623 55.2060899667 -28.600136489 -29.7685632899 9.00607399617 38.8543336408 1.25985656694 -66.0617399165 -0.734186372034 -14.2085266341 0.301656131787 26.0206677376 -29.6694743205 -1.80858948255 -22.931011176 -0.26122512048 -1.19402528273 41.0463086851 -16.8058341321 12.7470565433 -15.519552417 0.603709054876 
-21.410129 0.987514203539 0.9790603 -8.8760391472 -0.265849878919 -94.0058674716 -5.51902635646 15.3049120148 3.10887073753 0.355805631403 19.0184944043 23.8111373996 -6.8042139606 -27.1152106747 -1.03181074454 -9.3428458647 -0.194054078654 -5.64329481822 10.4607779309 -4.41095793722 -7.05786328071 56.8398438954 -28.7342267627 -28.6147360183 9.07947291654 39.8205868423 0.991052337719 -66.4933395702 0.439644282474 -14.2882417719 0.544247455674 26.3300975051 -29.2961771616 -1.12717790116 -22.2612735618 -0.142724339928 -1.10113374952 37.5318894892 -18.051746014 13.3935834671 -15.6253964435 0.641699634256 
-21.433628 0.983406803539 0.9774447 -8.57930755513 -0.10011100981 -93.5998605367 -4.81018761685 16.5188347058 3.15388083039 0.744424452074 19.3959016295 23.3893612655 -7.88186071728 -27.979473784 -1.30043802917 -8.31697706458 -0.339799670052 -5.50045037635 9.92678520383 -4.22620345461 -6.84494365928 58.7567228256 -28.4825821032 -26.9297829916 9.22912919144 40.6591428271 0.940475960854 -66.7200676997 1.82005331474 -14.2733903794 0.667721427695 26.4994981493 -28.595625149 -0.392188448286 -21.0393510117 -0.100855913976 -1.03136294026 34.6728986612 -18.5714721835 12.9706385169 -15.1521189755 0.552989831007 
-21.458481 0.979576403539 0.9751744 -8.31670300324 0.144072248412 -93.0859092922 -3.87224981833 17.9119252115 3.15915053478 1.18647088006 19.6268132499 22.6985337347 -9.3666379749 -28.5779110534 -1.63601941708 -7.11379698049 -0.471674614669 -5.28812028563 9.38506667906 -4.09293408418 -6.55291209113 60.6825834545 -27.8616649736 -25.0458648468 9.38935176899 41.6195425565 1.14186600952 -66.8868950702 3.42610058108 -14.168126919 0.39650939671 26.2641554438 -27.2318464001 0.576291875135 -19.8870297969 0.200644824337 -1.02746621062 33.5030716714 -17.7998947412 9.19926248175 -13.614478615 0.220578157801 
-21.484922 0.975733003539 0.9722367 -8.10969533742 0.539833019036 -92.7949842147 -2.79709373282 19.2500924586 3.05538950256 1.74556177755 20.2387025768 22.3667726637 -11.2615655309 -28.8162197686 -2.01657728051 -5.54437703045 -0.514195637182 -4.89865948406 8.63025820501 -4.2345426887 -6.06589655142 62.4893802259 -27.0725680962 -22.8347499049 9.66456911895 43.0751685668 1.01231877203 -67.2666740786 5.02259966985 -13.824733182 -0.191575453697 25.7118185361 -24.9089246766 1.79187451554 -19.4484650578 1.36210417865 -1.09204287446 35.1452882045 -16.8474299841 3.18445361089 -12.3596524824 -0.0723192102008 
-21.511284 0.975715003539 0.96332352 -8.61117977911 1.84054004027 -92.5014978163 -0.154486992896 19.4656993326 0.695295008096 1.40052996915 24.6618989324 23.373400821 -16.7584001758 -27.3187007931 -2.8539100211 -4.07757000053 -0.0843656962152 -4.65573014585 9.00762018024 -3.98349012113 -5.81259002142 63.837584436 -26.1648701064 -18.4565884016 10.9674994201 44.2342004425 -1.11224998912 -70.0975211122 4.39737567917 -11.8715355747 -3.25986999838 27.6527004586 -18.5340990959 3.88427991589 -17.3095008192 2.58621996649 -1.15271000205 36.6302020659 -17.6153003412 2.28063986434 -14.7467011445 -0.0737115015744 
-21.53677 0.978594003539 0.95435298 -9.08785014355 2.57867004613 -91.3277981093 2.04730011173 18.1604006634 -0.379581012976 1.21716991234 30.8096002326 22.6565007506 -19.2100999935 -23.4207989187 -2.63565004551 -3.77604959207 -0.25226399233 -4.69628012518 9.98433979287 -3.73489983676 -5.76352023488 65.1250750945 -25.9754143192 -14.2273566119 11.7676005861 44.3068019383 -2.41135004826 -73.1044026112 -2.6988837234 -9.20620366149 -6.92983992246 36.9046015008 -12.2428997901 5.04249003449 -14.5422001581 1.86572999137 -1.17439990809 35.9100986368 -18.2883010782 2.11784998944 -16.445999276 -0.0646504018667 
-21.560018 0.982046003539 0.9463458 -9.26657058092 3.20527010649 -90.149501685 3.94257003093 14.6497005055 -0.719820990106 1.34837998073 39.3352984867 22.0481016503 -17.0917014545 -17.7691008334 -1.47867000129 -2.71645011617 -0.436728992318 -4.54996039768 10.0576004019 -3.88659022738 -5.29764028867 66.7456740789 -26.3029031069 -10.4133405595 11.8522001629 43.5478005819 -2.57186013409 -74.8875327771 -8.93227807105 -6.13364050204 -10.8378001042 46.4165995616 -5.85853969218 5.97315026645 -12.1004997374 0.624487023939 -1.16747996596 34.7162976831 -18.4406996741 1.83812001887 -17.3665994931 -0.0775481068766 
-21.580422 0.984077003539 0.9400514 -9.30940013589 3.81878992769 -89.2857013211 5.39591006224 9.61334953037 -0.836711993787 1.53819990239 49.2495981048 21.2156006282 -13.371699541 -12.7805996023 -0.540614008479 -0.501362992392 -0.470115997517 -4.03384995965 8.87390983573 -4.05072991841 -4.28486026543 68.8042794343 -26.8604377885 -6.48340125594 11.4051992865 41.9160000872 -1.70654997816 -75.2771267674 -11.4052138006 -2.58316751226 -13.4476990559 52.1768976547 -1.8396399494 6.8134500839 -10.2428001275 -0.542732007452 -1.15424988954 33.8711983771 -18.2855007007 1.79654999347 -18.3419983179 -0.0714330998776 
-21.599253 0.985557003539 0.9351977 -9.44721030145 4.17881987101 -88.7603026796 6.25512993058 4.28905015959 -0.752862030215 1.88610978175 58.814000792 19.8118003858 -11.6114001362 -10.7996996015 -0.269362997391 2.26199003281 -0.424289990539 -3.19124004416 6.6564398297 -3.91601980496 -2.8888498538 71.0438301613 -27.0463760283 -2.10898931309 10.9449000317 39.7152004385 -0.334069968432 -74.7647806173 -11.162478269 1.36893906357 -13.7309999347 53.4982011647 -1.43961999554 7.34444008904 -8.39665975898 -1.46574002631 -1.13056001873 33.0409000911 -18.0197995118 2.07515020807 -19.4477000766 -0.0318960996348 
-21.617964 0.987952003539 0.9310961 -9.66893958625 4.11551981222 -88.4595011485 6.40680025752 -0.754683983177 -0.634227994274 2.44044003738 66.8504013694 18.5070993581 -11.5918000546 -11.5705001097 -0.348382016188 4.78509990514 -0.404042988642 -2.18464987985 3.95132974854 -3.72725984329 -1.36871003879 73.0174747937 -26.5200843395 2.52114171063 10.7625006837 37.7560016563 1.04537998254 -73.8911037998 -9.40364564738 5.73388276341 -12.1944993621 51.1307005041 -3.70576011533 7.39556063988 -6.26976019578 -2.29259013407 -1.01789999708 31.8381003631 -17.6882996955 2.07585008901 -20.2579995688 -0.0221787998413 
-21.636388 0.990636003539 0.92765 -9.85025037286 3.79975974 -88.2198981124 5.98780998684 -5.64137980393 -0.773195983622 3.26875991647 73.0837003079 17.4969007195 -11.6810006176 -13.1206994805 -0.502887031712 6.92762011098 -0.37106998362 -1.22033997389 1.30051999144 -3.72660030314 0.0531380980103 74.5160046372 -25.4005821836 7.1540135612 10.7166001049 36.6454982746 2.24164994291 -73.0964932522 -7.31938439384 10.3451803943 -10.190599553 47.2738019628 -6.68193991408 7.12625994129 -4.20355966996 -3.02611018913 -0.749372977488 30.6170981811 -17.4719995573 1.64982013446 -20.8837012458 -0.065088501139 
-21.654157 0.992702003539 0.9249321 -10.0637996524 3.38928991688 -87.8887022396 5.13931010041 -10.3289996761 -1.36029994149 4.39812016979 77.5779989327 16.3353997303 -11.3368999561 -14.1936001095 -0.58915301462 8.78375987642 -0.235442997312 -0.395997986296 -1.13110995568 -3.75957987155 1.29329002276 75.5640015427 -23.9119219634 11.6375443928 10.5147996046 35.8527011422 3.46706997671 -72.2813374955 -6.22159327487 14.6285337492 -8.71273017792 44.230102329 -8.83347084697 6.70344006892 -2.24092999828 -3.75113989217 -0.4129170052 29.5894005978 -17.3502002089 1.31493008976 -21.6131996001 -0.100795996408 
-21.671605 0.994334003539 0.9226528 -10.4543003502 2.88230994767 -87.4482984721 3.9898699447 -14.4730991343 -2.27160992737 5.56038016368 80.3043987135 14.814400272 -11.0901004619 -14.9431015265 -0.645077002718 10.3362004031 0.00407834997612 0.343152012274 -3.49902992594 -3.59921001805 2.40714990881 76.1468147544 -22.291700347 15.7170558746 10.0731006625 34.4194986429 5.03080998412 -70.920121775 -6.78788682028 18.0256734744 -8.28021015628 43.0327974882 -9.3588498517 6.17024007071 -0.0388508997366 -4.47638005041 -0.0300931998333 28.4654007623 -17.2634004574 1.35950006231 -22.3333013217 -0.0912007012022 
-21.689032 0.995758003539 0.9205175 -10.9049997741 2.31891005459 -86.9820970801 2.77467000833 -18.0117006149 -3.22857001618 6.04912075304 81.2547034233 13.7141011929 -11.057499969 -15.7850982191 -0.721421015279 11.5350002015 0.189598007211 1.07333007712 -5.76021997285 -3.28720996497 3.43737999816 76.1368085272 -20.4199331087 19.11880427 9.49472963505 31.909298255 6.98863034885 -68.9678556348 -8.42925256793 20.5841154885 -8.70027959684 43.3182993956 -8.56341968134 5.62185015866 2.33246008269 -5.14411001584 0.376235020695 27.1528006208 -17.1628003087 1.56646994864 -22.9184009392 -0.0595141996625 
-21.706503 0.996745003539 0.9185634 -11.1212999123 1.79511010422 -86.5727979941 1.66136987763 -21.1956991645 -4.08706993989 5.48586023851 80.5359011452 13.7432003601 -10.8286006932 -16.6391006767 -0.783097997011 12.3084004504 0.113197005259 1.81243018329 -7.55030028308 -3.01972993867 4.33830991078 75.520397615 -18.2166421485 21.8152792845 8.88494998275 28.8551006205 9.0972305546 -67.0793971217 -9.84235979682 22.8178725075 -9.11973944301 43.9404988931 -7.71950968203 5.17353020192 4.38661002038 -5.66271987622 0.713721951342 25.9536994403 -17.0845007276 1.7584399925 -23.5088998213 -0.027519800999 
